<svg xmlns="http://www.w3.org/2000/svg" viewBox="0 0 512 512"><defs><style>.a{fill:#27300f;}</style></defs><title>instagram</title><path class="a" d="M352,0H160A160,160,0,0,0,0,160V352A160,160,0,0,0,160,512H352A160,160,0,0,0,512,352V160A160,160,0,0,0,352,0ZM464,352A112.12,112.12,0,0,1,352,464H160A112.12,112.12,0,0,1,48,352V160A112.12,112.12,0,0,1,160,48H352A112.12,112.12,0,0,1,464,160Z"/><path class="a" d="M256,128A128,128,0,1,0,384,256,128,128,0,0,0,256,128Zm0,208a80,80,0,1,1,80-80A80.11,80.11,0,0,1,256,336Z"/><circle class="a" cx="393.6" cy="118.4" r="17.06"/></svg>