<svg id="Группа_1" data-name="Группа 1" xmlns="http://www.w3.org/2000/svg" width="119.938" height="31.594" viewBox="0 0 119.938 31.594">
  <metadata><?xpacket begin="﻿" id="W5M0MpCehiHzreSzNTczkc9d"?>
<x:xmpmeta xmlns:x="adobe:ns:meta/" x:xmptk="Adobe XMP Core 5.6-c138 79.159824, 2016/09/14-01:09:01        ">
   <rdf:RDF xmlns:rdf="http://www.w3.org/1999/02/22-rdf-syntax-ns#">
      <rdf:Description rdf:about=""/>
   </rdf:RDF>
</x:xmpmeta>
                                                                                                    
                                                                                                    
                                                                                                    
                                                                                                    
                                                                                                    
                                                                                                    
                                                                                                    
                                                                                                    
                                                                                                    
                                                                                                    
                                                                                                    
                                                                                                    
                                                                                                    
                                                                                                    
                                                                                                    
                                                                                                    
                                                                                                    
                                                                                                    
                                                                                                    
                                                                                                    
                           
<?xpacket end="w"?></metadata>
<defs>
    <style>
      .cls-1 {
        fill: #27300f;
      }

      .cls-1, .cls-2 {
        fill-rule: evenodd;
      }

      .cls-2 {
        fill: #d26a22;
      }
    </style>
  </defs>
  <path id="Органическая_еда" data-name="Органическая еда" class="cls-1" d="M1.055,29.024a3.072,3.072,0,0,0,.67,1.03,3.125,3.125,0,0,0,1.016.683,3.222,3.222,0,0,0,1.268.247,3.213,3.213,0,0,0,1.273-.247,3.138,3.138,0,0,0,1.012-.683,3.074,3.074,0,0,0,.67-1.03,3.553,3.553,0,0,0,0-2.559,3.088,3.088,0,0,0-.67-1.025,3.141,3.141,0,0,0-1.012-.684,3.211,3.211,0,0,0-1.273-.247,3.22,3.22,0,0,0-1.268.247,3.128,3.128,0,0,0-1.016.684,3.085,3.085,0,0,0-.67,1.025A3.553,3.553,0,0,0,1.055,29.024Zm0.881-2.545a2.313,2.313,0,0,1,2.073-1.205,2.3,2.3,0,0,1,2.073,1.205,2.747,2.747,0,0,1,0,2.536A2.3,2.3,0,0,1,4.009,30.22a2.314,2.314,0,0,1-2.073-1.205A2.746,2.746,0,0,1,1.936,26.479Zm8.323,4.416h0.765V28.376h0.944a2.509,2.509,0,0,0,1.093-.229,1.854,1.854,0,0,0,.764-0.656,1.924,1.924,0,0,0,0-2.01,1.867,1.867,0,0,0-.764-0.652,2.509,2.509,0,0,0-1.093-.229H10.26v6.3Zm2.7-5.284a1.192,1.192,0,0,1,0,1.749,1.575,1.575,0,0,1-.994.3H11.024V25.318h0.944A1.593,1.593,0,0,1,12.962,25.611Zm4.2,5.284h0.764V25.318h2.338V24.6h-3.1v6.3Zm10.163,0-2.923-6.61-2.923,6.61h0.854l0.8-1.889h2.536l0.8,1.889h0.854Zm-1.961-2.608H23.444l0.962-2.266Zm4.7,2.608h0.764V27.837H34.3v3.058h0.764V24.6H34.3v2.518H30.837V24.6H30.072v6.3Zm8.409-6.3v6.61l4.767-5v4.686h0.764v-6.61l-4.767,5V24.6H38.481Zm8.948,0v1.637a2.7,2.7,0,0,0,.211,1.088,1.737,1.737,0,0,0,.634.769,1.832,1.832,0,0,0,1.043.283h1.439v2.518h0.764V24.6H50.757v3.1H49.318a1.04,1.04,0,0,1-.648-0.2,1.194,1.194,0,0,1-.391-0.531,2,2,0,0,1-.13-0.737V24.6H47.43Zm7.51,6.3h3.6V30.175H55.7V27.837h2.653V27.117H55.7v-1.8h2.833V24.6h-3.6v6.3Zm7.7-4.438a2.433,2.433,0,0,1,.859-0.868,2.217,2.217,0,0,1,1.151-.315,2.6,2.6,0,0,1,1.178.256,2.456,2.456,0,0,1,.845.679V25.2a2.688,2.688,0,0,0-.863-0.522,3.411,3.411,0,0,0-1.16-.171,3.156,3.156,0,0,0-1.228.238,3.047,3.047,0,0,0-1,.675,3.133,3.133,0,0,0-.674,1.03,3.575,3.575,0,0,0,0,2.59,3.133,3.133,0,0,0,.674,1.03,3.044,3.044,0,0,0,1,.674,3.156,3.156,0,0,0,1.228.238,3.409,3.409,0,0,0,1.16-.171,2.685,2.685,0,0,0,.863-0.522V29.285a2.533,2.533,0,0,1-2.024.935,2.216,2.216,0,0,1-1.151-.315,2.419,2.419,0,0,1-.859-0.872A2.693,2.693,0,0,1,62.642,26.456ZM70,30.894h0.764V27.837l2.608,3.058H74.32l-2.86-3.346,2.725-2.95H73.241l-2.473,2.707V24.6H70v6.3Zm12.231,0-2.923-6.61-2.923,6.61h0.854l0.8-1.889H80.58l0.8,1.889h0.854Zm-1.961-2.608H78.349l0.962-2.266ZM86.866,24.6a2.517,2.517,0,0,0-1.088.229,1.861,1.861,0,0,0-.769.652,1.767,1.767,0,0,0-.283,1.007,1.718,1.718,0,0,0,.418,1.183,2.056,2.056,0,0,0,1.084.634l-1.88,2.59h0.944l1.754-2.518H87.81v2.518h0.764V24.6H86.866Zm-0.989,2.783a1.234,1.234,0,0,1,0-1.794,1.516,1.516,0,0,1,.989-0.315H87.81V27.7H86.866A1.5,1.5,0,0,1,85.877,27.382Zm10.792,3.512h3.6V30.175H97.433V27.837h2.653V27.117H97.433v-1.8h2.833V24.6h-3.6v6.3Zm12.276,0.989h0.674V30.175H108.81l-2.383-5.891-2.384,5.891h-0.809v1.709h0.675V30.894h5.036v0.989Zm-0.935-1.709h-3.166l1.583-4.155Zm10.153,0.72-2.923-6.61-2.923,6.61h0.855l0.8-1.889h2.536l0.8,1.889h0.854Zm-1.96-2.608h-1.925l0.962-2.266Z" transform="translate(-0.031 -0.281)"/>
  <path id="Healthly" class="cls-1" d="M0.038,15.49h3.23V9.89H9.02v5.6h3.23V2.112H9.02V6.985H3.267V2.112H0.038V15.49Zm24.137-2.408-2.6-.631A2.3,2.3,0,0,1,19.4,13.6a1.873,1.873,0,0,1-1.357-.5,2.264,2.264,0,0,1-.631-1.4h6.708a2.838,2.838,0,0,0,.019-0.344v-0.4A4.307,4.307,0,0,0,22.9,7.673,4.909,4.909,0,0,0,19.4,6.507a5.133,5.133,0,0,0-3.631,1.223,4.362,4.362,0,0,0-1.319,3.364,4.671,4.671,0,0,0,.612,2.427,4.111,4.111,0,0,0,1.729,1.6,5.862,5.862,0,0,0,2.666.564,4.921,4.921,0,0,0,4.72-2.6h0Zm-3.66-4.195a1.927,1.927,0,0,1,.526,1.214H17.448A1.791,1.791,0,0,1,19.34,8.438,1.591,1.591,0,0,1,20.515,8.887ZM27.663,9.1a6.257,6.257,0,0,1,1-.315,5.043,5.043,0,0,1,1.147-.134q1.663,0,1.663,1.3v0.764a5.386,5.386,0,0,0-1.128-.392,6.245,6.245,0,0,0-1.471-.162,3.905,3.905,0,0,0-2.551.736,2.456,2.456,0,0,0-.889,2,2.573,2.573,0,0,0,1.577,2.475,3.824,3.824,0,0,0,1.558.315,4.155,4.155,0,0,0,1.71-.354,2.527,2.527,0,0,0,1.195-1.042v1.2h2.771V9.3a2.312,2.312,0,0,0-.535-1.548,3.371,3.371,0,0,0-1.453-.965,6.061,6.061,0,0,0-2.083-.334,7.641,7.641,0,0,0-2.284.325,13.9,13.9,0,0,0-1.806.688l0.975,1.93A4.046,4.046,0,0,1,27.663,9.1ZM28.685,12a1.776,1.776,0,0,1,1.089-.258,4.184,4.184,0,0,1,1.7.344,1.683,1.683,0,0,1-.612,1.29,2,2,0,0,1-1.261.43,1.4,1.4,0,0,1-.889-0.277,0.948,0.948,0,0,1-.354-0.793A0.884,0.884,0,0,1,28.685,12ZM36.6,15.49h2.9V0.583H36.6V15.49Zm4.319-6.4h1.548v6.4h2.79v-6.4H46.8V6.7H45.254V3.641h-2.79V6.7H40.916V9.087Zm13.015,6.4h2.886V9.718a3.9,3.9,0,0,0-.688-2.484,2.821,2.821,0,0,0-2.331-.86,3.085,3.085,0,0,0-1.644.411A2.773,2.773,0,0,0,51.122,7.9V0.583h-2.9V15.49h2.9V10.139a1.6,1.6,0,0,1,.421-1.194,1.518,1.518,0,0,1,1.108-.411,1.127,1.127,0,0,1,.994.411,2.081,2.081,0,0,1,.287,1.194V15.49Zm5.332,0h2.9V0.583h-2.9V15.49ZM70.653,6.7l-2.064,5.179L66.506,6.7H63.314l3.8,8.084-2.141,4.912H67.9l5.733-13H70.653Z" transform="translate(-0.031 -0.281)"/>
  <path id="food" class="cls-2" d="M79.967,9.087h1.109v6.4h2.771v-6.4h2.121V6.7H83.847V4.176q0-1.3.917-1.3a1.059,1.059,0,0,1,.9.478l1.166-2.121A4.875,4.875,0,0,0,85.94.612,3.126,3.126,0,0,0,84.382.277a3.313,3.313,0,0,0-2.475.85,3.179,3.179,0,0,0-.831,2.322V6.7H79.967V9.087ZM87.66,13.5a4.476,4.476,0,0,0,1.8,1.605,6.07,6.07,0,0,0,5.15,0A4.492,4.492,0,0,0,96.393,13.5a4.375,4.375,0,0,0,.659-2.408,4.41,4.41,0,0,0-.659-2.427,4.492,4.492,0,0,0-1.787-1.605,6.07,6.07,0,0,0-5.15,0,4.476,4.476,0,0,0-1.8,1.605A4.411,4.411,0,0,0,87,11.094,4.376,4.376,0,0,0,87.66,13.5Zm2.924-4.023a2.03,2.03,0,0,1,2.886,0,2.183,2.183,0,0,1,.6,1.615,2.149,2.149,0,0,1-.6,1.605,2.053,2.053,0,0,1-2.886,0,2.149,2.149,0,0,1-.6-1.605A2.183,2.183,0,0,1,90.584,9.479ZM99.107,13.5a4.471,4.471,0,0,0,1.8,1.605,6.069,6.069,0,0,0,5.15,0,4.493,4.493,0,0,0,1.787-1.605,4.371,4.371,0,0,0,.659-2.408,4.407,4.407,0,0,0-.659-2.427,4.493,4.493,0,0,0-1.787-1.605,6.069,6.069,0,0,0-5.15,0,4.471,4.471,0,0,0-1.8,1.605,4.41,4.41,0,0,0-.659,2.427A4.375,4.375,0,0,0,99.107,13.5Zm2.924-4.023a2.03,2.03,0,0,1,2.886,0,2.184,2.184,0,0,1,.6,1.615,2.15,2.15,0,0,1-.6,1.605,2.053,2.053,0,0,1-2.886,0,2.15,2.15,0,0,1-.6-1.605A2.184,2.184,0,0,1,102.031,9.479Zm8.457,4.118a4,4,0,0,0,1.548,1.558,4.141,4.141,0,0,0,2.026.525,3.424,3.424,0,0,0,3.019-1.605V15.49h2.886V0.583h-2.886v7.53a3.424,3.424,0,0,0-3.019-1.605,4.142,4.142,0,0,0-2.026.526,4.018,4.018,0,0,0-1.548,1.548,4.94,4.94,0,0,0-.593,2.513A4.952,4.952,0,0,0,110.488,13.6Zm3.067-4.147a2.038,2.038,0,0,1,1.481-.612,1.922,1.922,0,0,1,.965.268,2.172,2.172,0,0,1,.774.764,2.292,2.292,0,0,1,.306,1.223,2.3,2.3,0,0,1-.306,1.214,2.145,2.145,0,0,1-.774.774,1.919,1.919,0,0,1-.965.268,2.037,2.037,0,0,1-1.481-.612,2.2,2.2,0,0,1-.621-1.644A2.2,2.2,0,0,1,113.555,9.451Z" transform="translate(-0.031 -0.281)"/>
</svg>
