<svg xmlns="http://www.w3.org/2000/svg" viewBox="0 0 504 302.4"><defs><style>.a{fill:#ffb600;}.b{fill:#f7981d;}.c{fill:#ff8500;}.d{fill:#ff5050;}.e{fill:#e52836;}.f{fill:#cb2026;}.g{fill:#fff;}.h{fill:#dce5e5;}</style></defs><title>mastercard</title><path class="a" d="M504,152.44a151.08,151.08,0,0,1-151.2,151.2c-83.2,0-151.2-68-151.2-151.2h0c0-83.2,67.2-151.2,150.4-151.2,84.8,0,152,68,152,151.2Z" transform="translate(0 -1.24)"/><path class="b" d="M352.8,1.24c83.2,0,151.2,68,151.2,151.2h0a151.08,151.08,0,0,1-151.2,151.2c-83.2,0-151.2-68-151.2-151.2" transform="translate(0 -1.24)"/><path class="c" d="M352.8,1.24c83.2,0,151.2,68,151.2,151.2h0a151.08,151.08,0,0,1-151.2,151.2" transform="translate(0 -1.24)"/><path class="d" d="M149.6,1.24C67.2,2,0,69.24,0,152.44a151.08,151.08,0,0,0,151.2,151.2c39.2,0,74.4-15.2,101.6-39.2h0c5.6-4.8,10.4-10.4,15.2-16H236.8a184.55,184.55,0,0,1-11.2-15.2h53.6a102.48,102.48,0,0,0,8.8-16H216.8a95.35,95.35,0,0,1-6.4-16h83.2c4.8-15.2,8-31.2,8-48,0-11.2-1.6-21.6-3.2-32H205.6c.8-5.6,2.4-10.4,4-16h83.2a95.35,95.35,0,0,0-6.4-16H216c2.4-5.6,5.6-10.4,8.8-16h53.6a76.08,76.08,0,0,0-12-16H236.8A136.35,136.35,0,0,1,252,42c-26.4-24.8-62.4-39.2-101.6-39.2C150.4,1.24,150.4,1.24,149.6,1.24Z" transform="translate(0 -1.24)"/><path class="e" d="M0,152.44a151.08,151.08,0,0,0,151.2,151.2c39.2,0,74.4-15.2,101.6-39.2h0c5.6-4.8,10.4-10.4,15.2-16H236.8a184.55,184.55,0,0,1-11.2-15.2h53.6a102.48,102.48,0,0,0,8.8-16H216.8a95.35,95.35,0,0,1-6.4-16h83.2c4.8-15.2,8-31.2,8-48,0-11.2-1.6-21.6-3.2-32H205.6c.8-5.6,2.4-10.4,4-16h83.2a95.35,95.35,0,0,0-6.4-16H216c2.4-5.6,5.6-10.4,8.8-16h53.6a76.08,76.08,0,0,0-12-16H236.8A136.35,136.35,0,0,1,252,42c-26.4-24.8-62.4-39.2-101.6-39.2h-.8" transform="translate(0 -1.24)"/><path class="f" d="M151.2,303.64c39.2,0,74.4-15.2,101.6-39.2h0c5.6-4.8,10.4-10.4,15.2-16H236.8a184.55,184.55,0,0,1-11.2-15.2h53.6a102.48,102.48,0,0,0,8.8-16H216.8a95.35,95.35,0,0,1-6.4-16h83.2c4.8-15.2,8-31.2,8-48,0-11.2-1.6-21.6-3.2-32H205.6c.8-5.6,2.4-10.4,4-16h83.2a95.35,95.35,0,0,0-6.4-16H216c2.4-5.6,5.6-10.4,8.8-16h53.6a76.08,76.08,0,0,0-12-16H236.8A136.35,136.35,0,0,1,252,42c-26.4-24.8-62.4-39.2-101.6-39.2h-.8" transform="translate(0 -1.24)"/><path class="g" d="M204.8,190.84l2.4-13.6c-.8,0-2.4.8-4,.8-5.6,0-6.4-3.2-5.6-4.8l4.8-28h8.8l2.4-15.2h-8l1.6-9.6h-16s-9.6,52.8-9.6,59.2c0,9.6,5.6,13.6,12.8,13.6A24.56,24.56,0,0,0,204.8,190.84Z" transform="translate(0 -1.24)"/><path class="g" d="M210.4,165.24c0,22.4,15.2,28,28,28,12,0,16.8-2.4,16.8-2.4l3.2-15.2s-8.8,4-16.8,4c-17.6,0-14.4-12.8-14.4-12.8H260s2.4-10.4,2.4-14.4c0-10.4-5.6-23.2-23.2-23.2C222.4,127.64,210.4,145.24,210.4,165.24Zm28-23.2c8.8,0,7.2,10.4,7.2,11.2H228C228,152.44,229.6,142,238.4,142Z" transform="translate(0 -1.24)"/><path class="g" d="M340,190.84l3.2-17.6s-8,4-13.6,4c-11.2,0-16-8.8-16-18.4,0-19.2,9.6-29.6,20.8-29.6,8,0,14.4,4.8,14.4,4.8l2.4-16.8s-9.6-4-18.4-4c-18.4,0-36.8,16-36.8,46.4,0,20,9.6,33.6,28.8,33.6C331.2,193.24,340,190.84,340,190.84Z" transform="translate(0 -1.24)"/><path class="g" d="M116.8,127.64a56.66,56.66,0,0,0-19.2,3.2l-2.4,13.6a47.29,47.29,0,0,1,17.6-3.2c5.6,0,10.4.8,10.4,5.6,0,3.2-.8,4-.8,4h-7.2c-13.6,0-28.8,5.6-28.8,24,0,14.4,9.6,17.6,15.2,17.6,11.2,0,16-7.2,16.8-7.2l-.8,6.4H132l6.4-44C138.4,128.44,122.4,127.64,116.8,127.64Zm3.2,36c0,2.4-1.6,15.2-11.2,15.2a6.24,6.24,0,0,1-6.4-6.4c0-4,2.4-9.6,14.4-9.6A12.62,12.62,0,0,0,120,163.64Z" transform="translate(0 -1.24)"/><path class="g" d="M153.6,192.44c4,0,24,.8,24-20.8,0-20-19.2-16-19.2-24,0-4,3.2-5.6,8.8-5.6,2.4,0,11.2.8,11.2.8l2.4-14.4a60.77,60.77,0,0,0-15.2-1.6c-12,0-24,4.8-24,20.8,0,18.4,20,16.8,20,24,0,4.8-5.6,5.6-9.6,5.6a52.32,52.32,0,0,1-14.4-2.4l-2.4,14.4C136,190.84,140,192.44,153.6,192.44Z" transform="translate(0 -1.24)"/><path class="g" d="M472.8,114.84l-3.2,21.6s-6.4-8-15.2-8c-14.4,0-27.2,17.6-27.2,38.4,0,12.8,6.4,26.4,20,26.4a21.36,21.36,0,0,0,15.2-6.4l-.8,5.6h16l12-76.8Zm-7.2,42.4c0,8.8-4,20-12.8,20-5.6,0-8.8-4.8-8.8-12.8,0-12.8,5.6-20.8,12.8-20.8C462.4,143.64,465.6,147.64,465.6,157.24Z" transform="translate(0 -1.24)"/><path class="g" d="M29.6,191.64,39.2,134l1.6,57.6H52L72.8,134,64,191.64H80.8l12.8-76.8H67.2L51.2,162l-.8-47.2H27.2l-12.8,76.8Z" transform="translate(0 -1.24)"/><path class="g" d="M277.6,191.64c4.8-26.4,5.6-48,16.8-44,1.6-10.4,4-14.4,5.6-18.4h-3.2c-7.2,0-12.8,9.6-12.8,9.6l1.6-8.8H270.4L260,192.44h17.6Z" transform="translate(0 -1.24)"/><path class="g" d="M376.8,127.64a56.66,56.66,0,0,0-19.2,3.2l-2.4,13.6a47.29,47.29,0,0,1,17.6-3.2c5.6,0,10.4.8,10.4,5.6,0,3.2-.8,4-.8,4h-7.2c-13.6,0-28.8,5.6-28.8,24,0,14.4,9.6,17.6,15.2,17.6,11.2,0,16-7.2,16.8-7.2l-.8,6.4H392l6.4-44C399.2,128.44,382.4,127.64,376.8,127.64Zm4,36c0,2.4-1.6,15.2-11.2,15.2a6.24,6.24,0,0,1-6.4-6.4c0-4,2.4-9.6,14.4-9.6C380,163.64,380,163.64,380.8,163.64Z" transform="translate(0 -1.24)"/><path class="g" d="M412,191.64c4.8-26.4,5.6-48,16.8-44,1.6-10.4,4-14.4,5.6-18.4h-3.2c-7.2,0-12.8,9.6-12.8,9.6L420,130H404.8l-10.4,62.4H412Z" transform="translate(0 -1.24)"/><path class="h" d="M180,179.64c0,9.6,5.6,13.6,12.8,13.6a30.45,30.45,0,0,0,12-2.4l2.4-13.6c-.8,0-2.4.8-4,.8-5.6,0-6.4-3.2-5.6-4.8l4.8-28h8.8l2.4-15.2h-8l1.6-9.6" transform="translate(0 -1.24)"/><path class="h" d="M218.4,165.24c0,22.4,7.2,28,20,28,12,0,16.8-2.4,16.8-2.4l3.2-15.2s-8.8,4-16.8,4c-17.6,0-14.4-12.8-14.4-12.8H260s2.4-10.4,2.4-14.4c0-10.4-5.6-23.2-23.2-23.2C222.4,127.64,218.4,145.24,218.4,165.24Zm20-23.2c8.8,0,10.4,10.4,10.4,11.2H228C228,152.44,229.6,142,238.4,142Z" transform="translate(0 -1.24)"/><path class="h" d="M340,190.84l3.2-17.6s-8,4-13.6,4c-11.2,0-16-8.8-16-18.4,0-19.2,9.6-29.6,20.8-29.6,8,0,14.4,4.8,14.4,4.8l2.4-16.8s-9.6-4-18.4-4c-18.4,0-28.8,16-28.8,46.4,0,20,1.6,33.6,20.8,33.6C331.2,193.24,340,190.84,340,190.84Z" transform="translate(0 -1.24)"/><path class="h" d="M95.2,145.24a47.29,47.29,0,0,1,17.6-3.2c5.6,0,10.4.8,10.4,5.6,0,3.2-.8,4-.8,4h-7.2c-13.6,0-28.8,5.6-28.8,24,0,14.4,9.6,17.6,15.2,17.6,11.2,0,16-7.2,16.8-7.2l-.8,6.4H132l6.4-44c0-18.4-16-19.2-22.4-19.2m12,34.4c0,2.4-9.6,15.2-19.2,15.2a6.24,6.24,0,0,1-6.4-6.4c0-4,2.4-9.6,14.4-9.6C119.2,163.64,128,163.64,128,163.64Z" transform="translate(0 -1.24)"/><path class="h" d="M136,190.84s4.8,1.6,18.4,1.6c4,0,24,.8,24-20.8,0-20-19.2-16-19.2-24,0-4,3.2-5.6,8.8-5.6,2.4,0,11.2.8,11.2.8l2.4-14.4a60.77,60.77,0,0,0-15.2-1.6c-12,0-16,4.8-16,20.8,0,18.4,12,16.8,12,24,0,4.8-5.6,5.6-9.6,5.6" transform="translate(0 -1.24)"/><path class="h" d="M469.6,136.44s-6.4-8-15.2-8c-14.4,0-19.2,17.6-19.2,38.4,0,12.8-1.6,26.4,12,26.4a21.36,21.36,0,0,0,15.2-6.4l-.8,5.6h16l12-76.8m-20.8,41.6c0,8.8-7.2,20-16,20-5.6,0-8.8-4.8-8.8-12.8,0-12.8,5.6-20.8,12.8-20.8C462.4,143.64,468.8,147.64,468.8,157.24Z" transform="translate(0 -1.24)"/><path class="h" d="M29.6,191.64,39.2,134l1.6,57.6H52L72.8,134,64,191.64H80.8l12.8-76.8h-20L51.2,162l-.8-47.2H41.6l-27.2,76.8Z" transform="translate(0 -1.24)"/><path class="h" d="M260.8,191.64h16.8c4.8-26.4,5.6-48,16.8-44,1.6-10.4,4-14.4,5.6-18.4h-3.2c-7.2,0-12.8,9.6-12.8,9.6l1.6-8.8" transform="translate(0 -1.24)"/><path class="h" d="M355.2,145.24a47.29,47.29,0,0,1,17.6-3.2c5.6,0,10.4.8,10.4,5.6,0,3.2-.8,4-.8,4h-7.2c-13.6,0-28.8,5.6-28.8,24,0,14.4,9.6,17.6,15.2,17.6,11.2,0,16-7.2,16.8-7.2l-.8,6.4H392l6.4-44c0-18.4-16-19.2-22.4-19.2m12,34.4c0,2.4-9.6,15.2-19.2,15.2a6.24,6.24,0,0,1-6.4-6.4c0-4,2.4-9.6,14.4-9.6C380,163.64,388,163.64,388,163.64Z" transform="translate(0 -1.24)"/><path class="h" d="M395.2,191.64H412c4.8-26.4,5.6-48,16.8-44,1.6-10.4,4-14.4,5.6-18.4h-3.2c-7.2,0-12.8,9.6-12.8,9.6L420,130" transform="translate(0 -1.24)"/></svg>