<svg xmlns="http://www.w3.org/2000/svg" viewBox="0 0 488.8 136"><defs><style>.a{fill:#32a6ce;}.b{fill:#1a80ad;}.c{fill:#21789e;}.d{fill:#1a5b80;}.e{fill:#06435e;}.f{fill:#2273aa;}</style></defs><title>paypal</title><path class="a" d="M381.6,24c-12,0-21.6,3.2-29.6,4.8l-2.4,18.4a104.79,104.79,0,0,1,24.8-5.6c9.6,0,15.2,1.6,13.6,10.4-28.8,0-48,5.6-52,24.8-5.6,32,29.6,32.8,43.2,18.4l-1.6,8.8h25.6l11.2-52C418.4,30.4,399.2,23.2,381.6,24Zm1.6,53.6c-1.6,6.4-7.2,8.8-13.6,9.6-5.6,0-10.4-3.2-7.2-9.6,3.2-4.8,10.4-4.8,16-4.8h6.4C384,72,383.2,75.2,383.2,77.6Z"/><path class="b" d="M349.6,47.2a104.79,104.79,0,0,1,24.8-5.6c9.6,0,15.2,1.6,13.6,10.4-28.8,0-48,5.6-52,24.8-5.6,32,29.6,32.8,43.2,18.4l-1.6,8.8h25.6l11.2-52c4.8-21.6-15.2-27.2-32.8-27.2m1.6,52.8c-1.6,6.4-7.2,8.8-13.6,9.6-5.6,0-10.4-3.2-7.2-9.6,3.2-4.8,10.4-4.8,16-4.8h6.4C384,72,383.2,75.2,383.2,77.6Z"/><polygon class="a" points="436 0 415.2 104 440.8 104 462.4 0 436 0"/><polygon class="b" points="454.4 0 415.2 104 440.8 104 462.4 0 436 0 436 0 454.4 0"/><path class="a" d="M316.8,0H269.6L248.8,104h28L284,72h20c19.2,0,35.2-11.2,39.2-31.2C347.2,17.6,330.4,0,316.8,0ZM316,36c-1.6,7.2-8.8,12-16,12H287.2l5.6-24h13.6C313.6,24,317.6,28.8,316,36Z"/><path class="b" d="M316.8,0h-32L248,104h28l7.2-32h20c19.2,0,35.2-11.2,39.2-31.2C347.2,17.6,330.4,0,316.8,0ZM316,36c-1.6,7.2-8.8,12-16,12H287.2l5.6-24h13.6C313.6,24,317.6,28.8,316,36Z"/><path class="c" d="M132,24c-12,0-21.6,3.2-28.8,4.8l-2.4,18.4c3.2-1.6,15.2-4.8,24.8-5.6,9.6,0,15.2,1.6,13.6,10.4C111.2,52,92,57.6,88,76.8c-5.6,32,28.8,32.8,42.4,18.4l-1.6,8.8h25.6l11.2-52C169.6,30.4,149.6,23.2,132,24Zm2.4,53.6c-1.6,6.4-7.2,8.8-13.6,9.6-5.6,0-10.4-3.2-6.4-9.6,3.2-4.8,10.4-4.8,15.2-4.8H136C135.2,72,134.4,75.2,134.4,77.6Z"/><path class="d" d="M101.6,47.2c3.2-1.6,15.2-4.8,24.8-5.6,9.6,0,15.2,1.6,13.6,10.4-28,0-47.2,5.6-51.2,24.8-5.6,32,28.8,32.8,42.4,18.4l-2.4,8.8h25.6l11.2-52c4.8-21.6-15.2-27.2-32.8-27.2m1.6,52.8c-1.6,6.4-7.2,8.8-13.6,9.6-5.6,0-10.4-3.2-6.4-9.6,3.2-4.8,10.4-4.8,15.2-4.8H136C135.2,72,134.4,75.2,134.4,77.6Z"/><polygon class="c" points="176 24 201.6 24 205.6 68.8 231.2 24 257.6 24 196.8 136 168 136 186.4 102.4 176 24"/><polyline class="d" points="201.6 25.6 205.6 69.6 231.2 24 257.6 24 196.8 136 168 136 186.4 103.2"/><path class="c" d="M68.8,0h-48L0,104H28l7.2-32h20c19.2,0,35.2-11.2,39.2-31.2C99.2,17.6,82.4,0,68.8,0ZM68,36c-1.6,7.2-8.8,12-16,12H39.2l5.6-24H58.4C65.6,24,69.6,28.8,68,36Z"/><path class="d" d="M68.8,0H47.2L0,104H28l7.2-32h20c19.2,0,35.2-11.2,39.2-31.2C99.2,17.6,82.4,0,68.8,0ZM68,36c-1.6,7.2-8.8,12-16,12H39.2l5.6-24H58.4C65.6,24,69.6,28.8,68,36Z"/><path class="e" d="M127.2,52c-21.6,1.6-36,8-39.2,24-5.6,32,28.8,32.8,42.4,18.4l-1.6,9.6h25.6l4-19.2Zm7.2,25.6c-1.6,6.4-7.2,8.8-13.6,9.6-5.6,0-10.4-3.2-6.4-9.6,3.2-4.8,10.4-4.8,15.2-4.8H136C135.2,72,134.4,75.2,134.4,77.6Z"/><polygon class="e" points="207.2 68 205.6 70.4 222.4 86.4 257.6 24 231.2 24 207.2 68"/><polygon class="e" points="28 104 35.2 72 2.4 104 28 104"/><polygon class="f" points="276 104 283.2 70.4 283.2 71.2 250.4 104 276 104"/><path class="f" d="M376,52c-21.6,1.6-36,8-39.2,24-5.6,32,29.6,32.8,43.2,18.4l-2.4,9.6h25.6l4-19.2Zm7.2,25.6c-1.6,6.4-7.2,8.8-13.6,9.6-5.6,0-10.4-3.2-7.2-9.6,3.2-4.8,10.4-4.8,16-4.8h6.4C384,72,383.2,75.2,383.2,77.6Z"/><polygon class="f" points="433.6 56.8 415.2 104 440.8 104 448 72 433.6 56.8"/><path class="a" d="M468,16.8V5.6h-4V4h10.4V5.6h-4V16.8Z"/><path class="a" d="M476,16.8V4h2.4l3.2,8.8a2.79,2.79,0,0,0,.8,1.6c0-.8,0-.8.8-2.4l3.2-8.8h2.4V16h-1.6V4.8l-4,11.2h-2.4l-4-11.2V16H476Z"/></svg>