<svg xmlns="http://www.w3.org/2000/svg" viewBox="0 0 504 152.8"><defs><style>.a{fill:#3c58bf;}.b{fill:#293688;}.c{fill:#ffbc00;}.d{fill:#f7981d;}.e{fill:#ed7c00;}.f{fill:#051244;}</style></defs><title>visa</title><polygon class="a" points="184.8 148.8 210.4 4.8 250.4 4.8 225.6 148.8 184.8 148.8"/><polygon class="b" points="184.8 148.8 217.6 4.8 250.4 4.8 225.6 148.8 184.8 148.8"/><path class="a" d="M370.4,6.4c-8-3.2-20.8-6.4-36.8-6.4-40,0-68.8,20-68.8,48.8,0,21.6,20,32.8,36,40s20.8,12,20.8,18.4c0,9.6-12.8,14.4-24,14.4-16,0-24.8-2.4-38.4-8l-5.6-2.4L248,144c9.6,4,27.2,8,45.6,8,42.4,0,70.4-20,70.4-50.4,0-16.8-10.4-29.6-34.4-40-14.4-7.2-23.2-11.2-23.2-18.4,0-6.4,7.2-12.8,23.2-12.8,13.6,0,23.2,2.4,30.4,5.6l4,1.6,6.4-31.2Z"/><path class="b" d="M370.4,6.4c-8-3.2-20.8-6.4-36.8-6.4C293.6,0,272,20,272,48.8c0,21.6,12.8,32.8,28.8,40s20.8,12,20.8,18.4c0,9.6-12.8,14.4-24,14.4-16,0-24.8-2.4-38.4-8l-5.6-2.4L248,144c9.6,4,27.2,8,45.6,8,42.4,0,70.4-20,70.4-50.4,0-16.8-10.4-29.6-34.4-40-14.4-7.2-23.2-11.2-23.2-18.4,0-6.4,7.2-12.8,23.2-12.8,13.6,0,23.2,2.4,30.4,5.6l4,1.6,6.4-31.2Z"/><path class="a" d="M439.2,4.8c-9.6,0-16.8.8-20.8,10.4l-60,133.6h43.2l8-24h51.2l4.8,24H504L470.4,4.8Zm-18.4,96c2.4-7.2,16-42.4,16-42.4s3.2-8.8,5.6-14.4l2.4,13.6s8,36,9.6,44H420.8Z"/><path class="b" d="M448.8,4.8c-9.6,0-16.8.8-20.8,10.4L358.4,148.8h43.2l8-24h51.2l4.8,24H504L470.4,4.8Zm-28,96c3.2-8,16-42.4,16-42.4s3.2-8.8,5.6-14.4l2.4,13.6s8,36,9.6,44H420.8Z"/><path class="a" d="M111.2,105.6l-4-20.8c-7.2-24-30.4-50.4-56-63.2l36,128h43.2l64.8-144H152Z"/><path class="b" d="M111.2,105.6l-4-20.8c-7.2-24-30.4-50.4-56-63.2l36,128h43.2l64.8-144H160Z"/><path class="c" d="M0,4.8,7.2,6.4c51.2,12,86.4,42.4,100,78.4l-14.4-68c-2.4-9.6-9.6-12-18.4-12Z"/><path class="d" d="M0,4.8H0C51.2,16.8,93.6,48,107.2,84L93.6,27.2A19.53,19.53,0,0,0,74.4,12Z"/><path class="e" d="M0,4.8H0C51.2,16.8,93.6,48,107.2,84L97.6,52.8C95.2,43.2,92,33.6,80.8,29.6Z"/><path class="f" d="M151.2,100.8,124,73.6,111.2,104,108,84c-7.2-24-30.4-50.4-56-63.2l36,128h43.2Z"/><polygon class="f" points="225.6 148.8 191.2 113.6 184.8 148.8 225.6 148.8"/><path class="f" d="M317.6,99.2h0c3.2,3.2,4.8,5.6,4,8.8,0,9.6-12.8,14.4-24,14.4-16,0-24.8-2.4-38.4-8l-5.6-2.4L248,144.8c9.6,4,27.2,8,45.6,8,25.6,0,46.4-7.2,58.4-20Z"/><path class="f" d="M364,148.8h37.6l8-24h51.2l4.8,24H504L490.4,90.4,442.4,44l2.4,12.8s8,36,9.6,44H420.8c3.2-8,16-42.4,16-42.4s3.2-8.8,5.6-14.4"/></svg>